<svg width="156" height="156" viewBox="0 0 156 156" fill="none" xmlns="http://www.w3.org/2000/svg">
<g clip-path="url(#clip0_1375_146)">
<path d="M119.924 84.5V66.1375H101.561V48.9125H119.924V30.7125H137.149V48.9125H155.349V66.1375H137.149V84.5H119.924ZM59.0121 74.425C49.7865 74.425 42.005 71.2292 35.6675 64.8375C29.33 58.4458 26.1612 50.6729 26.1612 41.5188C26.1612 32.3646 29.3214 24.6458 35.6416 18.3625C41.9618 12.0792 49.7347 8.9375 58.9604 8.9375C68.186 8.9375 75.9675 12.0731 82.305 18.3443C88.6425 24.6154 91.8112 32.3673 91.8112 41.6C91.8112 50.7 88.6511 58.4458 82.3308 64.8375C76.0107 71.2292 68.2377 74.425 59.0121 74.425ZM-0.48877 142.025V116.188C-0.48877 111.12 0.799856 106.545 3.37711 102.462C5.95403 98.3781 9.37791 95.2617 13.6487 93.1125C20.7987 89.4292 28.1748 86.6667 35.777 84.825C43.3792 82.9833 51.1002 82.0625 58.9399 82.0625C66.9875 82.0625 74.8029 82.9833 82.3862 84.825C89.9696 86.6667 97.2821 89.375 104.324 92.95C108.594 95.0834 112.018 98.1769 114.596 102.231C117.173 106.284 118.461 110.933 118.461 116.179V142.025H-0.48877Z" fill="white"/>
</g>
<defs>
<clipPath id="clip0_1375_146">
<rect width="156" height="156" fill="white"/>
</clipPath>
</defs>
</svg>
